# xmcd
#
# Track frame offsets:
# 150
# 14832
# 32860
# 55498
# 78428
# 96264
# 117390
# 135212
# 153188
# 164067
# 185605
#
# Disc length: 2758 seconds
#
# Revision: 0
# Processed by: cddbd v1.5.2PL0 Copyright (c) Steve Scherf et al.
# Submitted via: cdrdao 1.2.3rc2
#
DISCID=940ac40b
DTITLE=Fire In The Head - Icon
DYEAR=2007
DGENRE=blues
TTITLE0=Learning To Breathe
TTITLE1=Rape And Rapture
TTITLE2=Written In Her Own Blood MK. II
TTITLE3=Fissures In The Lining
TTITLE4=Retreat
TTITLE5=Speaking In Severed Tongues
TTITLE6=Your Scars
TTITLE7=Intravenous Incendiary Device
TTITLE8=Father Knows Best
TTITLE9=Sewn Shut [Torn Open]
TTITLE10=The Least Of Our Errors
EXTD=Autarkeia 2007
EXTT0=
EXTT1=
EXTT2=
EXTT3=
EXTT4=
EXTT5=
EXTT6=
EXTT7=
EXTT8=
EXTT9=
EXTT10=
PLAYORDER=
